# xmcd
#
# Track frame offsets: 
#        150
#        15001
#        27375
#        41984
#        57828
#        68246
#        89604
#        104562
#        117603
#        134992
#        153375
#        165245
#        179151
#        194831
#
# Disc length: 2760 seconds
#
# Revision: 4
# Processed by: cddbd v1.5.2PL0 Copyright (c) Steve Scherf et al.
# Submitted via: ExactAudioCopyFreeDBPlugin 1.0
#
DISCID=d20ac60e
DTITLE=Roger Cicero - Männersachen
DYEAR=2006
DGENRE=Swing
TTITLE0=Zieh die Schuh aus
TTITLE1=Kein Mann für eine Frau
TTITLE2=Kompromisse
TTITLE3=Ich atme ein
TTITLE4=Schieß mich doch zum Mond (Fly Me To The Moon - In Other Words
TTITLE4=)
TTITLE5=Wenn sie dich fragt
TTITLE6=Fachmann in Sachen Anna
TTITLE7=Ich Idiot ließ dich gehen
TTITLE8=Mein guter Stern auf allen Wegen
TTITLE9=Murphys Gesetz
TTITLE10=Schön daß du da bist
TTITLE11=Das ganze Leben ist ein Zoo
TTITLE12=Du willst es doch auch
TTITLE13=So geil Berlin
EXTD=YEAR: 2006
EXTT0=
EXTT1=
EXTT2=
EXTT3=
EXTT4=
EXTT5=
EXTT6=
EXTT7=
EXTT8=
EXTT9=
EXTT10=
EXTT11=
EXTT12=
EXTT13=
PLAYORDER=
